# xmcd CD database file
#
# Track frame offsets:
#	150
#	28325
#	55102
#	78857
#	95187
#	116717
#	134395
#	149675
#	178582
#	196970
#	217790
#	248055
#
# Disc length: 3654 seconds
#
# Revision: 0
# Processed by: cddbd v1.5.2PL0 Copyright (c) Steve Scherf et al.
# Submitted via: CDex 1.51
#
DISCID=ae0e440c
DTITLE=Alabama 3 - Exile on Coldharbour Lane
DYEAR=1997
DGENRE=Country
TTITLE0=Converted
TTITLE1=Speed of the Sound of Loneliness
TTITLE2=Woke Up This Morning
TTITLE3=U Don't Dans 2 Tekno Anymore
TTITLE4=Bourgeoisie Blues
TTITLE5=Ain't Goin' To Goa
TTITLE6=Mao Tse Tung Said
TTITLE7=Hypo Full of Love (The 12 Step Plan)
TTITLE8=The Old Purple Tin (9% of Pure Heaven)
TTITLE9=The Night We Nearly Got Busted
TTITLE10=Sister Rosetta
TTITLE11=Peace in the Valley
EXTD=YEAR: 1997
EXTT0=
EXTT1=
EXTT2=
EXTT3=
EXTT4=
EXTT5=
EXTT6=
EXTT7=
EXTT8=
EXTT9=
EXTT10=
EXTT11=
PLAYORDER=
